<svg width="100" height="100" viewBox="0 0 100 100" fill="none" xmlns="http://www.w3.org/2000/svg">
<rect width="100" height="100" fill="white"/>
<path d="M51.4885 34C50.2013 34 48.9138 34.1578 47.6267 34.4505C46.3455 34.7463 45.1139 35.1742 43.9348 35.7213C42.7557 36.2714 41.6753 36.9222 40.6942 37.6852C39.7041 38.4541 38.8703 39.2978 38.1802 40.2383C37.1841 41.5898 36.4171 43.0606 35.883 44.6339C35.358 46.2161 35.0951 47.9097 35.0861 49.7285C35.0771 51.9495 35.4156 54.0627 36.1057 56.0708C36.7958 58.0788 37.8875 59.8939 39.3757 61.5235C40.2398 62.4491 41.2476 63.2466 42.3877 63.909C43.5279 64.5715 44.7872 65.0905 46.1734 65.4513C47.5535 65.8121 49.0484 65.9911 50.6446 66C52.3248 66 53.9587 65.7514 55.5729 65.2664C57.1841 64.7844 58.6928 64.0643 60.0969 63.1061C61.5011 62.1568 62.7242 60.9673 63.7654 59.5596C64.4464 58.6339 65.0119 57.6515 65.4589 56.6253C65.909 55.5931 66.2477 54.4814 66.4727 53.2866C66.6977 52.0919 66.8067 50.7701 66.8067 49.3357C66.8037 47.721 66.5936 46.168 66.1856 44.6686C65.7775 43.1603 65.1617 41.7675 64.3396 40.4751C63.5265 39.1886 62.505 38.0573 61.2748 37.0903C60.0537 36.1232 58.6203 35.3672 56.9911 34.826C55.3529 34.2848 53.5257 34.0089 51.4885 34ZM20.3362 34.1444C18.416 34.1444 16.6571 34.2934 15.1149 34.5892C13.5157 34.9027 12.0734 35.3599 10.7022 35.9928C8.90802 36.7942 7.34234 37.8763 6.05518 39.2101C4.76503 40.5469 3.7539 42.1286 3.05482 43.9119C2.36473 45.7041 2.006 47.6972 2 49.8325C2.009 53.2512 2.68399 56.1856 4.00415 58.5545C4.66723 59.7434 5.49885 60.8005 6.48297 61.7025C7.46709 62.6045 8.6294 63.3776 9.93456 63.9957C12.5389 65.2259 15.8043 65.8555 19.6447 65.8614C20.7219 65.8525 21.8225 65.7779 22.9147 65.6419C24.0818 65.4851 25.105 65.3144 26.0381 65.1162C27.0132 64.9151 27.8925 64.708 28.6576 64.504C29.4917 64.2792 30.0315 64.1313 30.4156 64.013H30.4214L30.4273 64.0072C30.4633 63.9422 30.4971 63.8429 30.5211 63.7069C30.5511 63.5767 30.5647 63.4356 30.5797 63.3025L30.5855 63.2794C30.5945 63.1138 30.5888 63.0265 30.5738 62.9733V62.9675H30.5679C30.2379 62.8403 29.9629 62.6991 29.7768 62.569C29.6118 62.4536 29.4969 62.3098 29.4369 62.1531C29.3799 61.9993 29.3463 61.8064 29.3373 61.5639C29.3133 61.3214 29.2964 60.9734 29.2904 60.5357C29.2814 60.0892 29.2787 59.5921 29.2787 59.0686C29.2877 58.5333 29.2932 58.0033 29.3022 57.4917C29.3082 57.1753 29.3166 56.8797 29.3256 56.6195C29.3316 56.4568 29.3343 56.3051 29.3373 56.1632C29.3553 55.4504 29.4474 54.9354 29.6245 54.5805C29.7955 54.2256 30.112 53.9742 30.5621 53.8412C30.7961 53.7643 31.051 53.6979 31.318 53.6505C31.5941 53.5944 31.8973 53.5477 32.1853 53.5004L32.197 53.4946C32.2631 53.4295 32.3048 53.2947 32.3318 53.0729C32.3588 52.8452 32.3674 52.6386 32.3494 52.4375C32.3344 52.2157 32.3008 52.0839 32.2498 52.0159L32.2439 52.0101H32.2381C32.1571 52.0131 32.0731 52.0157 31.9861 52.0217C31.713 52.0364 31.4084 52.056 31.0543 52.0679C30.4843 52.0974 29.9197 52.1166 29.3256 52.1314C28.6535 52.1462 27.8246 52.1545 26.8585 52.1545C25.3523 52.1456 24.0023 52.1208 22.8502 52.0794C21.6681 52.038 20.7177 52.019 19.9436 52.0101H19.9377H19.9319C19.8659 52.0663 19.8157 52.1926 19.7737 52.4144C19.7376 52.6422 19.7235 52.8491 19.7385 53.0325C19.7565 53.2484 19.804 53.3718 19.885 53.4368L19.8909 53.4426C20.6649 53.5343 21.2826 53.6142 21.7837 53.6852C22.2937 53.7503 22.7699 53.8302 23.1959 53.9278C23.673 54.052 24.037 54.2148 24.2801 54.413C24.5321 54.6052 24.7112 54.8731 24.8192 55.2043C24.9242 55.5326 24.9914 55.9688 25.0184 56.4982C25.0424 57.3292 25.0509 58.185 25.0419 59.0397C25.0329 59.8914 24.9908 60.7086 24.9188 61.4657C24.8768 61.8916 24.7735 62.2797 24.5965 62.6671C24.4315 63.0427 24.1767 63.3215 23.8347 63.4989C23.4777 63.7207 23.0128 63.8837 22.4517 63.9783C21.8936 64.0819 21.2496 64.1285 20.5355 64.1285C18.3092 64.1196 16.3319 63.7388 14.6637 62.9906C12.9955 62.2513 11.5754 61.194 10.4503 59.8484C9.32511 58.5057 8.4739 56.9241 7.91283 55.1408C7.35176 53.3664 7.06312 51.401 7.06312 49.2953C7.06312 47.2961 7.30127 45.4575 7.76633 43.8368C8.24039 42.1807 8.92785 40.8004 9.87596 39.6144C10.8151 38.4404 12.0109 37.5182 13.433 36.8823C14.8552 36.2494 16.5468 35.9266 18.461 35.9177C19.5561 35.9177 20.4843 35.9701 21.2914 36.0736C22.1105 36.1801 22.8414 36.3346 23.4655 36.5357C24.0836 36.7339 24.6607 36.9851 25.1708 37.2809C25.6419 37.5441 26.0248 37.894 26.3428 38.3495C26.6579 38.796 26.9097 39.409 27.0988 40.1632C27.2998 40.941 27.4651 41.9348 27.5852 43.1148V43.1206H27.591C27.69 43.1856 27.8518 43.2215 28.1008 43.2303C28.3709 43.2303 28.5913 43.2054 28.7923 43.161C29.0174 43.1226 29.1657 43.0591 29.2377 42.9704V42.9646C29.2557 42.3613 29.295 41.7263 29.349 41.0816C29.412 40.3067 29.4791 39.6097 29.5541 38.9502C29.6562 38.1339 29.7454 37.4766 29.8354 36.8881C29.9314 36.2522 30.0323 35.6976 30.1343 35.2303V35.213H30.1167C29.1776 35.1124 28.2105 34.9802 27.1574 34.8087C26.2543 34.6549 25.2471 34.5091 23.9929 34.3523C22.8618 34.2193 21.6324 34.1503 20.3362 34.1444ZM97.5019 34.5834C97.0338 34.7934 96.5837 34.9506 96.1306 35.057C95.6866 35.1605 95.1911 35.2325 94.648 35.265C94.105 35.2975 93.4643 35.3112 92.7142 35.3112L74.0967 35.3227C73.1846 35.3227 72.401 35.2507 71.7409 35.1206C71.0809 34.9905 70.5383 34.8138 70.0942 34.5949C70.0612 34.5802 69.9936 34.5828 69.9126 34.6065C69.8226 34.6213 69.7473 34.6491 69.6723 34.6816C69.5973 34.7141 69.5583 34.7588 69.5493 34.7913C69.5253 35.3266 69.4746 35.9418 69.4086 36.6397C69.3426 37.3377 69.2614 38.069 69.1684 38.8231C69.0693 39.5772 68.9716 40.3059 68.8636 40.9949C68.7646 41.6929 68.6579 42.3027 68.5589 42.8202C68.6069 42.9001 68.7355 42.983 68.9515 43.0628C69.1736 43.1368 69.4003 43.1978 69.6313 43.2303C69.8623 43.2629 70.0044 43.2603 70.0884 43.213C70.3194 42.589 70.5461 41.9961 70.7682 41.4224C70.9902 40.8546 71.1999 40.3271 71.4069 39.8628C71.6139 39.3926 71.8183 38.992 72.0164 38.6845C72.3134 38.2054 72.6267 37.8574 72.9657 37.6563C73.3017 37.4523 73.6708 37.339 74.0908 37.3213C74.5769 37.3065 75.1337 37.2955 75.7668 37.2866C76.3999 37.2866 77.0324 37.2809 77.6655 37.2809C78.3076 37.2809 78.8784 37.2866 79.3825 37.2866C79.8836 37.2955 80.2446 37.3036 80.4666 37.3213C80.5476 37.3213 80.6201 37.3627 80.6952 37.4426C80.7702 37.5165 80.8064 37.6076 80.8124 37.7141C80.8124 39.3436 80.8096 41.0234 80.8006 42.7682C80.8006 44.5131 80.7949 46.2398 80.7889 47.961C80.7799 49.6733 80.76 51.3039 80.742 52.8477C80.724 54.3973 80.7102 55.7821 80.6952 57.0065C80.6711 58.2397 80.6461 59.2382 80.6131 60.0101C80.6041 60.7554 80.5598 61.3647 80.4607 61.8527C80.3617 62.3318 80.1798 62.7042 79.9158 62.9733C79.6517 63.2424 79.2539 63.4187 78.7379 63.5162C78.3688 63.6138 77.8877 63.7022 77.2846 63.7762C76.6905 63.856 76.0076 63.9275 75.2335 64.0014C75.1855 64.0754 75.1492 64.2137 75.1222 64.4C75.0982 64.5952 75.1015 64.7882 75.1105 64.9834C75.1255 65.1786 75.1675 65.3279 75.2335 65.4166C75.8756 65.4077 76.8245 65.3829 78.0757 65.3415C79.3268 65.3001 80.8662 65.2753 82.6934 65.2664C83.7046 65.2664 84.6844 65.2802 85.6235 65.3069C86.5626 65.3305 87.4194 65.3467 88.1785 65.3704C88.9436 65.3941 89.5677 65.4166 90.0537 65.4166C90.1347 65.3752 90.202 65.2537 90.253 65.0585C90.295 64.8633 90.3201 64.6677 90.3291 64.4578C90.3261 64.2478 90.2951 64.0902 90.2471 64.0014C89.68 63.9364 89.19 63.8842 88.7879 63.8339C88.3859 63.7866 88.0302 63.7226 87.7331 63.6664C87.4271 63.6102 87.1502 63.5471 86.8951 63.4643C86.5171 63.3755 86.2178 63.2289 85.9868 63.0426C85.7558 62.8563 85.5854 62.5856 85.4594 62.2455C85.3454 61.8965 85.2613 61.4413 85.2133 60.8823C85.1893 60.4535 85.1668 59.7639 85.1488 58.8087C85.1338 57.8505 85.1199 56.7027 85.1019 55.3718C85.0929 54.041 85.0875 52.6152 85.0785 51.0744C85.0785 49.5336 85.0726 47.9752 85.0726 46.3841C85.0636 44.793 85.0609 43.2592 85.0609 41.7805V37.7545C85.0609 37.6747 85.0834 37.6005 85.1254 37.5177C85.1734 37.4438 85.235 37.3912 85.307 37.3675C85.6041 37.3527 86.0155 37.3417 86.5435 37.3329C87.0716 37.3329 87.6649 37.3271 88.325 37.3271C88.9821 37.3271 89.6482 37.3269 90.3233 37.3329C91.0074 37.3358 91.9826 37.3382 92.5677 37.356C93.0358 37.3707 93.4247 37.4952 93.7397 37.7141C94.0518 37.9329 94.3006 38.2803 94.4957 38.7653C94.6217 39.0759 94.7394 39.4651 94.8414 39.9206C94.9464 40.3849 95.0301 40.8782 95.1051 41.4224C95.1801 41.9665 95.2388 42.5266 95.2868 43.1032C95.3288 43.1506 95.4269 43.1806 95.5739 43.2072C95.7209 43.2309 95.892 43.2448 96.072 43.2419C96.2611 43.2389 96.429 43.2252 96.576 43.1957C96.723 43.1631 96.8211 43.1162 96.8631 43.057C96.9291 42.3916 96.9961 41.6686 97.0741 40.8968C97.1521 40.1278 97.2418 39.3639 97.3378 38.5921C97.4308 37.829 97.5344 37.1172 97.6484 36.4606C97.7594 35.81 97.877 35.2637 98 34.826C97.967 34.7698 97.9059 34.7175 97.7949 34.6643C97.6899 34.611 97.5829 34.5834 97.5019 34.5834ZM49.7949 35.9466C50.0439 35.9466 50.2932 35.9549 50.5333 35.9697H50.545V63.7184H50.5333C50.0442 63.6504 49.5652 63.548 49.1151 63.4238C48.5511 63.2641 48.0022 63.0656 47.4802 62.8231L47.4684 62.8116V36.2007L47.4802 36.1949C48.2122 36.0293 48.9938 35.9466 49.7949 35.9466ZM51.383 36.0448H51.4006C52.0816 36.1305 52.7426 36.2798 53.3637 36.478C53.6817 36.5756 53.9983 36.6888 54.3013 36.813L54.313 36.8188V63.7011H54.3013C53.7342 63.8016 53.1434 63.8513 52.5433 63.8513C52.1532 63.8513 51.7696 63.8374 51.4006 63.8108H51.383V36.0448ZM46.6363 36.4375V62.3841L46.6129 62.3726C46.5049 62.3105 46.3984 62.2412 46.2964 62.1762C45.2073 61.4753 44.2495 60.6085 43.4484 59.6C42.6503 58.5856 41.9836 57.4677 41.4736 56.2729C40.9605 55.0722 40.574 53.7994 40.325 52.5011C40.076 51.2028 39.9499 49.8888 39.9499 48.5964C39.9499 46.9195 40.1432 45.3213 40.5242 43.8426C40.9023 42.3639 41.496 41.0223 42.2881 39.857C43.0802 38.6889 44.0912 37.7393 45.2943 37.0325C45.7084 36.8048 46.1508 36.6088 46.6129 36.4491L46.6363 36.4375ZM55.151 37.2L55.1745 37.2116C55.5765 37.4215 55.9656 37.656 56.3406 37.9162C57.3067 38.5817 58.1722 39.4071 58.9073 40.3653C59.6154 41.2969 60.2176 42.3541 60.6947 43.5134C61.1567 44.646 61.5067 45.869 61.7378 47.1466C61.9628 48.3828 62.0835 49.6966 62.0835 51.057C62.0925 52.5653 61.9581 54.0227 61.685 55.3949C61.409 56.7761 60.958 58.043 60.3489 59.1668C59.7398 60.3024 58.9138 61.2989 57.8877 62.13C57.2336 62.6771 56.4565 63.0902 55.5143 63.4007C55.4003 63.4362 55.2826 63.4722 55.1686 63.5047L55.151 63.5105V37.2Z" fill="black"/>
</svg>
