<svg width="14" height="40" viewBox="0 0 14 40" fill="none" xmlns="http://www.w3.org/2000/svg">
<path d="M5.86435 0.203125C5.42685 0.421875 5.15341 0.695312 4.88779 1.20312C4.66904 1.625 4.65341 2.55469 4.85654 3.00781C4.98154 3.29688 4.98935 3.60938 4.97373 6.75L4.95029 10.1797L4.44248 10.3203C3.65341 10.5469 0.364352 11.8828 0.169039 12.0547C-0.190336 12.375 0.0674767 13.125 0.528414 13.125C0.622164 13.125 1.48154 12.8047 2.45029 12.4219C3.41904 12.0312 4.24716 11.7188 4.28623 11.7188C4.3331 11.7188 4.36435 11.9688 4.36435 12.2891C4.36435 12.9609 4.51279 13.5312 4.79404 13.9062L4.98935 14.1719V16.2656V18.3672L5.18466 18.5547C5.43466 18.8125 5.79404 18.8125 6.04404 18.5547C6.2081 18.3984 6.23935 18.2891 6.23935 17.9141V17.4609H6.86435H7.49716L7.46591 25.3125C7.43466 33.6484 7.45029 33.1484 7.05185 35.2656C6.97373 35.6797 6.8956 36.0156 6.86435 36.0156C6.81748 36.0156 6.65341 35.2266 6.41904 33.8594C6.30966 33.1953 6.28623 32.1875 6.24716 26.6953L6.20029 20.2969L6.01279 20.1484C5.75498 19.9375 5.41123 19.9609 5.17685 20.1953L4.98154 20.3906L5.01279 26.8594C5.05185 34.125 4.98935 33.2344 5.7706 37.1875C6.31748 39.9062 6.34873 40 6.86435 40C7.37998 40 7.41904 39.9062 7.94248 37.2266C8.7706 33.0625 8.68466 34.4922 8.73935 23.6719L8.77841 14.1016L8.96591 13.8438C9.23154 13.4688 9.36435 12.9453 9.36435 12.2891C9.36435 11.9688 9.3956 11.7188 9.44248 11.7188C9.48154 11.7188 10.3097 12.0312 11.2784 12.4219C12.2472 12.8047 13.1065 13.125 13.2003 13.125C13.6612 13.125 13.919 12.375 13.5675 12.0547C13.3644 11.8828 9.98154 10.5078 9.24716 10.3047L8.77841 10.1797L8.73935 7.99219C8.70029 5.97656 8.68466 5.78125 8.55185 5.63281C8.32529 5.38281 7.86435 5.40625 7.65341 5.67188C7.51279 5.85156 7.48935 5.99219 7.48935 6.6875V7.5H6.86435H6.23935V5.90625V4.3125H6.82529C7.7706 4.3125 8.38779 3.9375 8.84091 3.09375C9.0831 2.64062 9.0831 1.65625 8.84091 1.20312C8.38779 0.359375 7.80185 0 6.86435 0C6.37998 0 6.19248 0.0390625 5.86435 0.203125ZM7.3331 1.36719C7.92685 1.67188 7.94248 2.54688 7.36435 2.92969C6.92685 3.21094 6.28623 3.03906 6.03623 2.57031C5.62216 1.75781 6.50498 0.9375 7.3331 1.36719ZM7.48935 9.375V10H6.86435H6.23935V9.375V8.75H6.86435H7.48935V9.375ZM7.87216 11.2969L8.11435 11.3438V12.0625C8.11435 12.6484 8.0831 12.8281 7.93466 13.0859C7.74716 13.4219 7.22373 13.75 6.86435 13.75C6.50498 13.75 5.98154 13.4219 5.79404 13.0859C5.6456 12.8281 5.61435 12.6484 5.61435 12.0547C5.61435 11.375 5.62216 11.3359 5.79404 11.3047C6.07529 11.25 7.60654 11.2422 7.87216 11.2969ZM7.48935 15.5547C7.48935 16.2344 7.47373 16.25 6.86435 16.25C6.25498 16.25 6.23935 16.2344 6.23935 15.5547V14.9609H6.86435H7.48935V15.5547Z" fill="#A3A3A3"/>
</svg>
